<?xml version="1.0" encoding="iso-8859-1"?>
<!-- Generator: Adobe Illustrator 21.0.0, SVG Export Plug-In . SVG Version: 6.00 Build 0)  -->
<svg xmlns="http://www.w3.org/2000/svg" xmlns:xlink="http://www.w3.org/1999/xlink" version="1.1" id="Capa_1" x="0px" y="0px" viewBox="0 0 512 512" style="enable-background:new 0 0 512 512;" xml:space="preserve" width="512" height="512">
<g>
	<path d="M308.262,89.787c0-28.773-23.397-52.183-52.157-52.183c-28.758,0-52.155,23.409-52.155,52.183   c0,28.774,23.397,52.184,52.155,52.184C284.864,141.97,308.262,118.561,308.262,89.787z M218.95,89.787   c0-20.503,16.668-37.183,37.155-37.183c20.489,0,37.157,16.68,37.157,37.183s-16.668,37.184-37.157,37.184   C235.618,126.97,218.95,110.29,218.95,89.787z"/>
	<path d="M466.5,405.739V275.706c0-15.288-12.438-27.727-27.727-27.727h-30.093c-3.645-25.847-25.827-45.795-52.573-45.795   c-25.98,0-47.648,18.824-52.209,43.592h-40.293v-66.425h74.512c4.143,0,7.5-3.357,7.5-7.5V7.724c0-4.143-3.357-7.5-7.5-7.5H174.094   c-4.142,0-7.5,3.357-7.5,7.5v35.552c0,9.673,15,9.673,15,0V15.224h149.023v149.127H181.594V79.276c0-9.673-15-9.673-15,0v92.575   c0,4.143,3.358,7.5,7.5,7.5h74.511v66.425h-40.504c-4.561-24.768-26.23-43.592-52.211-43.592   c-29.284,0-53.107,23.908-53.107,53.295c0,26.832,19.864,49.086,45.607,52.755v36.137H72c-14.595,0-26.47,11.621-26.47,25.904   v35.46C19.824,409.439,0,431.675,0,458.479c0,29.388,23.825,53.297,53.109,53.297c29.283,0,53.107-23.909,53.107-53.297   c0-26.858-19.904-49.128-45.686-52.764v-35.44c0-6.013,5.146-10.904,11.47-10.904h165.03c6.324,0,11.47,4.892,11.47,10.904v35.45   c-25.744,3.669-45.608,25.922-45.608,52.754c0,29.388,23.824,53.297,53.108,53.297c29.285,0,53.109-23.909,53.109-53.297   c0-26.831-19.864-49.084-45.608-52.753v-35.45c0-14.283-11.875-25.904-26.47-25.904h-73.639v-36.137   c24.029-3.425,42.933-23.04,45.345-47.458h94.527c2.658,26.91,25.342,48,52.844,48c26.747,0,48.928-19.949,52.573-45.797h30.093   c7.018,0,12.727,5.709,12.727,12.727v130.006c-25.796,3.623-45.716,25.899-45.716,52.767c0,29.388,23.825,53.297,53.109,53.297   c29.283,0,53.106-23.909,53.106-53.297C512,431.685,492.191,409.454,466.5,405.739z M91.216,458.479   c0,21.117-17.095,38.297-38.107,38.297c-21.013,0-38.109-17.18-38.109-38.297c0-21.116,17.096-38.295,38.109-38.295   C74.121,420.184,91.216,437.363,91.216,458.479z M294.108,458.479c0,21.117-17.096,38.297-38.109,38.297   c-21.013,0-38.108-17.18-38.108-38.297c0-21.116,17.095-38.295,38.108-38.295C277.013,420.184,294.108,437.363,294.108,458.479z    M155.891,293.776c-21.013,0-38.107-17.18-38.107-38.297c0-21.116,17.095-38.295,38.107-38.295   c21.013,0,38.109,17.179,38.109,38.295C194,276.596,176.904,293.776,155.891,293.776z M356.107,293.776   c-21.013,0-38.107-17.18-38.107-38.297c0-21.116,17.095-38.295,38.107-38.295c21.014,0,38.109,17.179,38.109,38.295   C394.217,276.596,377.121,293.776,356.107,293.776z M458.894,496.776c-21.014,0-38.109-17.18-38.109-38.297   c0-21.116,17.096-38.295,38.109-38.295c21.012,0,38.106,17.179,38.106,38.295C497,479.596,479.905,496.776,458.894,496.776z"/>
</g>















</svg>
