<svg height="467pt" viewBox="-1 0 467 467.024" width="467pt" xmlns="http://www.w3.org/2000/svg"><path d="m375.148438 245.742188h-29.777344c-4.414063 0-8-3.582032-8-8v-39.855469c0-4.414063 3.585937-8 8-8h29.769531c4.414063 0 8 3.585937 8 8v39.855469c.007813 4.417968-3.578125 8-7.992187 8zm0 0" fill="#82d9ff"/><path d="m41.789062 245.742188h-29.777343c-4.414063 0-8-3.582032-8-8v-39.855469c0-4.414063 3.585937-8 8-8h29.769531c4.414062 0 8 3.585937 8 8v39.855469c.007812 4.417968-3.578125 8-7.992188 8zm0 0" fill="#82d9ff"/><path d="m375.148438 249.734375h-29.769532c-6.613281 0-12-5.382813-12-12v-39.847656c0-6.613281 5.386719-12 12-12h29.769532c6.617187 0 12 5.386719 12 12v39.847656c0 6.617187-5.382813 12-12 12zm-29.769532-55.847656c-2.199218 0-4 1.800781-4 4v39.847656c0 2.203125 1.800782 4 4 4h29.769532c2.199218 0 4-1.796875 4-4v-39.847656c0-2.199219-1.800782-4-4-4zm0 0" fill="#63312d"/><path d="m41.789062 249.734375h-29.777343c-6.617188 0-12.0000002-5.382813-12.0000002-12v-39.847656c0-6.613281 5.3828122-12 12.0000002-12h29.777343c6.613282 0 12 5.386719 12 12v39.847656c0 6.617187-5.386718 12-12 12zm-29.777343-55.847656c-2.199219 0-4 1.800781-4 4v39.847656c0 2.203125 1.800781 4 4 4h29.777343c2.199219 0 4-1.796875 4-4v-39.847656c0-2.199219-1.800781-4-4-4zm0 0" fill="#63312d"/><path d="m348.699219 249.734375h-310.238281c-1.199219 0-2.34375-.535156-3.105469-1.476563-.765625-.9375-1.0625-2.167968-.816407-3.347656l27.207032-130.335937c1.84375-10.34375 10.90625-17.941407 21.546875-17.941407h220.574219c10.640624 0 19.703124 7.597657 21.5625 18.078126l27.175781 130.210937c.246093 1.175781-.050781 2.40625-.816407 3.34375-.746093.933594-1.890624 1.46875-3.089843 1.46875zm-305.320313-8h300.402344l-26.191406-125.511719c-1.203125-6.765625-6.960938-11.589844-13.714844-11.589844h-220.582031c-6.753907 0-12.503907 4.832032-13.6875 11.472657zm0 0" fill="#63312d"/><path d="m348.699219 245.742188h-310.238281l27.207031-130.34375c1.519531-8.542969 8.945312-14.765626 17.625-14.765626h220.582031c8.679688 0 16.105469 6.222657 17.625 14.765626zm0 0" fill="#82d9ff"/><path d="m348.699219 249.734375h-310.238281c-1.199219 0-2.34375-.535156-3.105469-1.476563-.765625-.9375-1.0625-2.167968-.816407-3.347656l27.207032-130.335937c1.84375-10.34375 10.90625-17.941407 21.546875-17.941407h220.574219c10.640624 0 19.703124 7.597657 21.5625 18.078126l27.175781 130.210937c.246093 1.175781-.050781 2.40625-.816407 3.34375-.746093.933594-1.890624 1.46875-3.089843 1.46875zm-305.320313-8h300.402344l-26.191406-125.511719c-1.203125-6.765625-6.960938-11.589844-13.714844-11.589844h-220.582031c-6.753907 0-12.503907 4.832032-13.6875 11.472657zm0 0" fill="#63312d"/><path d="m65.722656 245.742188h255.707032l-25.066407-118.261719h-205.574219zm0 0" fill="#eee"/><path d="m321.4375 249.734375h-255.707031c-1.199219 0-2.351563-.542969-3.109375-1.488281-.761719-.941406-1.058594-2.167969-.808594-3.34375l25.054688-118.253906c.394531-1.847657 2.023437-3.167969 3.914062-3.167969h205.582031c1.890625 0 3.519531 1.320312 3.914063 3.167969l25.0625 118.253906c.25 1.175781-.046875 2.410156-.808594 3.34375-.757812.9375-1.894531 1.488281-3.09375 1.488281zm-250.769531-8h245.824219l-23.359376-110.253906h-199.105468zm0 0" fill="#63312d"/><path d="m369.210938 359.359375h-351.261719v-59c0-10.113281 2.445312-20.0625 7.125-29.023437l13.378906-25.59375h310.238281l13.375 25.59375c4.679688 8.960937 7.128906 18.910156 7.128906 29.023437v59zm0 0" fill="#82d9ff"/><path d="m369.210938 363.359375h-351.261719c-2.210938 0-4-1.792969-4-4v-59.007813c0-10.710937 2.621093-21.390624 7.582031-30.871093l13.375-25.59375c.699219-1.320313 2.058594-2.152344 3.546875-2.152344h310.238281c1.496094 0 2.847656.832031 3.542969 2.152344l13.386719 25.59375c4.957031 9.503906 7.582031 20.175781 7.582031 30.871093v59.007813c.007813 2.214844-1.773437 4-3.992187 4zm-347.261719-8h343.261719v-55.007813c0-9.40625-2.3125-18.808593-6.679688-27.167968l-12.253906-23.449219h-305.402344l-12.246094 23.449219c-4.367187 8.351562-6.679687 17.753906-6.679687 27.167968zm0 0" fill="#63312d"/><path d="m369.507812 406.71875h-351.855468c-4.417969 0-8-3.582031-8-8v-31.359375c0-4.414063 3.582031-8 8-8h351.855468c4.417969 0 8 3.585937 8 8v31.359375c0 4.417969-3.582031 8-8 8zm0 0" fill="#f9dd9d"/><path d="m369.5 410.710938h-351.847656c-6.617188 0-12-5.382813-12-12v-31.351563c0-6.617187 5.382812-12 12-12h351.847656c6.617188 0 12 5.382813 12 12v31.351563c0 6.625-5.375 12-12 12zm-351.847656-47.351563c-2.199219 0-4 1.800781-4 4v31.351563c0 2.199218 1.800781 4 4 4h351.847656c2.199219 0 4-1.800782 4-4v-31.351563c0-2.199219-1.800781-4-4-4zm0 0" fill="#63312d"/><path d="m85.589844 337.359375h-69.160156c-4.417969 0-8-3.582031-8-8v-30.984375c0-4.414062 3.582031-8 8-8h69.160156c4.414062 0 8 3.585938 8 8v30.984375c0 4.417969-3.585938 8-8 8zm0 0" fill="#eee"/><path d="m370.730469 337.359375h-69.160157c-4.414062 0-8-3.582031-8-8v-30.984375c0-4.414062 3.585938-8 8-8h69.160157c4.417969 0 8 3.585938 8 8v30.984375c0 4.417969-3.582031 8-8 8zm0 0" fill="#eee"/><path d="m85.589844 341.359375h-69.152344c-6.617188 0-12-5.382813-12-12v-30.984375c0-6.613281 5.382812-12 12-12h69.160156c6.613282 0 12 5.386719 12 12v30.984375c-.007812 6.625-5.394531 12-12.007812 12zm-69.152344-46.984375c-2.203125 0-4 1.800781-4 4v30.984375c0 2.199219 1.796875 4 4 4h69.160156c2.199219 0 4-1.800781 4-4v-30.984375c0-2.199219-1.800781-4-4-4zm0 0" fill="#63312d"/><path d="m370.730469 341.359375h-69.160157c-6.613281 0-12-5.382813-12-12v-30.984375c0-6.613281 5.386719-12 12-12h69.160157c6.617187 0 12 5.386719 12 12v30.984375c0 6.625-5.382813 12-12 12zm-69.160157-46.984375c-2.199218 0-4 1.800781-4 4v30.984375c0 2.199219 1.800782 4 4 4h69.160157c2.203125 0 4-1.800781 4-4v-30.984375c0-2.199219-1.796875-4-4-4zm0 0" fill="#63312d"/><path d="m133.171875 290.375h124.167969v68.984375h-124.167969zm0 0" fill="#52b8d9"/><path d="m257.347656 363.359375h-124.175781c-2.207031 0-4-1.792969-4-4v-68.984375c0-2.207031 1.792969-4 4-4h124.167969c2.207031 0 4 1.792969 4 4v68.984375c.007812 2.214844-1.785156 4-3.992188 4zm-120.175781-8h116.167969v-60.984375h-116.167969zm0 0" fill="#63312d"/><path d="m80.117188 463.023438h-32.183594c-8.839844 0-16-7.160157-16-16v-40.304688h64.183594v40.304688c0 8.839843-7.160157 16-16 16zm0 0" fill="#52b8d9"/><path d="m339.226562 463.023438h-32.183593c-8.839844 0-16-7.160157-16-16v-40.304688h64.183593v40.304688c0 8.839843-7.167968 16-16 16zm0 0" fill="#52b8d9"/><g fill="#63312d"><path d="m80.125 467.023438h-32.191406c-11.035156 0-20-8.96875-20-20v-40.3125c0-2.207032 1.789062-4 4-4h64.183594c2.207031 0 4 1.792968 4 4v40.3125c.007812 11.03125-8.960938 20-19.992188 20zm-44.191406-56.3125v36.3125c0 6.617187 5.382812 12 12 12h32.183594c6.613281 0 12-5.382813 12-12v-36.3125zm0 0"/><path d="m339.226562 467.023438h-32.183593c-11.03125 0-20-8.96875-20-20v-40.3125c0-2.207032 1.792969-4 4-4h64.183593c2.210938 0 4 1.792968 4 4v40.3125c0 11.03125-8.964843 20-20 20zm-44.183593-56.3125v36.3125c0 6.617187 5.386719 12 12 12h32.183593c6.617188 0 12-5.382813 12-12v-36.3125zm0 0"/><path d="m99.339844 246.328125-7.542969-2.671875 6.925781-19.503906c.5625-1.601563 2.074219-2.664063 3.769532-2.664063h77.558593v8h-74.734375zm0 0"/><path d="m203.578125 246.328125-7.542969-2.671875 6.929688-19.503906c.558594-1.601563 2.070312-2.664063 3.765625-2.664063h77.5625v8h-74.738281zm0 0"/></g><path d="m362.660156 201.257812c54.472656 0 98.632813-44.160156 98.632813-98.632812s-44.160157-98.625-98.632813-98.625h-32v197.257812zm0 0" fill="#db785a"/><path d="m362.660156 205.257812h-32c-2.207031 0-4-1.792968-4-4v-197.257812c0-2.207031 1.792969-4 4-4h32c56.59375 0 102.632813 46.039062 102.632813 102.632812 0 56.582032-46.039063 102.625-102.632813 102.625zm-28-8h28c52.175782 0 94.632813-42.449218 94.632813-94.625 0-52.175781-42.457031-94.632812-94.632813-94.632812h-28zm0 0" fill="#63312d"/><path d="m429.292969 102.632812c0 54.472657-44.160157 98.632813-98.632813 98.632813s-98.632812-44.160156-98.632812-98.632813c0-54.472656 44.160156-98.632812 98.632812-98.632812s98.632813 44.160156 98.632813 98.632812zm0 0" fill="#f9a287"/><path d="m248.035156 102.632812c0-51.769531 39.914063-94.144531 90.632813-98.226562-2.648438-.214844-5.296875-.398438-8-.398438-54.472657 0-98.632813 44.160157-98.632813 98.632813s44.160156 98.632813 98.632813 98.632813c2.703125 0 5.351562-.195313 8-.402344-50.726563-4.101563-90.632813-46.472656-90.632813-98.238282zm0 0" fill="#ffc8bb"/><path d="m330.660156 205.257812c-56.585937 0-102.625-46.042968-102.625-102.625 0-56.59375 46.039063-102.632812 102.625-102.632812 56.59375 0 102.632813 46.039062 102.632813 102.632812 0 56.582032-46.039063 102.625-102.632813 102.625zm0-197.257812c-52.175781 0-94.625 42.457031-94.625 94.632812 0 52.175782 42.449219 94.625 94.625 94.625 52.175782 0 94.632813-42.449218 94.632813-94.625 0-52.175781-42.457031-94.632812-94.632813-94.632812zm0 0" fill="#63312d"/><path d="m342.914062 102.632812 24.515626-24.511718c3.382812-3.386719 3.382812-8.875 0-12.257813-3.386719-3.382812-8.875-3.382812-12.257813 0l-24.511719 24.511719-24.511718-24.511719c-3.382813-3.382812-8.871094-3.382812-12.257813 0-3.382813 3.382813-3.382813 8.871094 0 12.257813l24.511719 24.511718-24.511719 24.511719c-3.382813 3.382813-3.382813 8.871094 0 12.253907 3.386719 3.386718 8.875 3.386718 12.257813 0l24.511718-24.511719 24.511719 24.511719c3.382813 3.386718 8.871094 3.386718 12.257813 0 3.382812-3.382813 3.382812-8.871094 0-12.253907zm0 0" fill="#eee"/><path d="m361.300781 145.9375c-3.394531 0-6.570312-1.320312-8.953125-3.714844l-21.6875-21.679687-21.679687 21.679687c-2.402344 2.402344-5.578125 3.714844-8.960938 3.714844 0 0 0 0-.007812 0-3.382813 0-6.558594-1.320312-8.945313-3.714844-2.390625-2.390625-3.710937-5.566406-3.710937-8.949218 0-3.386719 1.320312-6.5625 3.710937-8.953126l21.679688-21.6875-21.679688-21.6875c-2.390625-2.386718-3.710937-5.5625-3.710937-8.945312-.007813-3.390625 1.3125-6.566406 3.710937-8.96875 4.9375-4.933594 12.960938-4.933594 17.914063 0l21.679687 21.6875 21.6875-21.6875c4.9375-4.933594 12.960938-4.933594 17.914063 0 4.933593 4.945312 4.933593 12.984375 0 17.914062l-21.691407 21.6875 21.691407 21.6875c4.933593 4.9375 4.933593 12.96875 0 17.902344-2.402344 2.402344-5.578125 3.714844-8.960938 3.714844zm-30.640625-35.050781c1.023438 0 2.046875.394531 2.832032 1.167969l24.511718 24.503906c.878906.882812 2.054688 1.371094 3.296875 1.371094 1.246094 0 2.421875-.488282 3.304688-1.371094 1.824219-1.824219 1.824219-4.773438 0-6.589844l-24.511719-24.511719c-1.5625-1.5625-1.5625-4.097656 0-5.65625l24.511719-24.511719c1.824219-1.824218 1.816406-4.785156 0-6.601562-1.832031-1.816406-4.792969-1.816406-6.601563 0l-24.511718 24.511719c-.753907.753906-1.769532 1.167969-2.832032 1.167969s-2.082031-.421876-2.832031-1.167969l-24.503906-24.511719c-1.832031-1.816406-4.792969-1.816406-6.601563 0-.878906.878906-1.375 2.066406-1.367187 3.304688 0 1.238281.488281 2.414062 1.367187 3.296874l24.503906 24.511719c1.5625 1.558594 1.5625 4.09375 0 5.65625l-24.503906 24.511719c-.878906.878906-1.367187 2.054688-1.367187 3.296875 0 1.238281.488281 2.414063 1.367187 3.292969.882813.882812 2.058594 1.371094 3.296875 1.371094 1.25 0 2.425781-.488282 3.304688-1.371094l24.503906-24.503906c.785156-.773438 1.808594-1.167969 2.832031-1.167969zm0 0" fill="#63312d"/></svg>