<svg id="Capa_1" enable-background="new 0 0 512 512" height="512" viewBox="0 0 512 512" width="512" xmlns="http://www.w3.org/2000/svg"><g><path d="m423.75 241.845v-241.69h-423.75v271.69h86.25l-.021 240h425.75l.021-270zm-337.5 0h-56.25v-211.69h363.75v276.728l-65.037-65.037h-135l-107.463-107.464zm395.559 239.957h-365.559v-274.994l65.037 65.037h135l107.463 107.463v-107.463h58.059z"/><path d="m225 361.845h30v30h-30z"/><path d="m285 361.845h30v30h-30z"/><path d="m345 361.845h30v30h-30z"/><path d="m302.857 91.446-20.714-21.701-71.899 68.63-27.138-27.136-21.212 21.213 47.862 47.863z"/></g></svg>