<svg height="511pt" viewBox="0 1 511 511.99899" width="511pt" xmlns="http://www.w3.org/2000/svg"><path d="m409.027344 124.171875h-11.765625l-109.996094-75.910156c10.332031-22.449219-6.140625-48.261719-30.960937-48.261719-24.8125 0-41.292969 25.808594-30.960938 48.261719l-109.996094 75.910156h-11.761718c-56.84375 0-103.085938 46.242187-103.085938 103.082031v181.660156c0 56.839844 46.242188 103.085938 103.085938 103.085938h305.441406c56.839844 0 103.082031-46.246094 103.082031-103.085938v-181.65625c0-56.84375-46.242187-103.085937-103.082031-103.085937zm-152.722656-109.035156c10.441406 0 18.933593 8.492187 18.933593 18.933593 0 10.4375-8.492187 18.933594-18.933593 18.933594-10.441407 0-18.933594-8.496094-18.933594-18.933594 0-10.441406 8.496094-18.933593 18.933594-18.933593zm239.660156 393.777343c0 47.941407-39 86.941407-86.9375 86.941407h-305.441406c-47.9375 0-86.941407-39-86.941407-86.941407v-181.65625c0-47.941406 39-86.941406 86.941407-86.941406h72.019531c4.457031 0 8.074219-3.613281 8.074219-8.074218 0-4.457032-3.617188-8.070313-8.074219-8.070313h-33.609375l92.578125-63.886719c12.621093 10.480469 30.855469 10.46875 43.464843 0l92.574219 63.886719h-164.734375c-4.457031 0-8.074218 3.613281-8.074218 8.070313 0 4.460937 3.617187 8.074218 8.074218 8.074218h203.148438c47.9375 0 86.9375 39 86.9375 86.941406zm0 0"/><path d="m465.136719 201.589844c-4.191407 1.515625-6.363281 6.140625-4.847657 10.335937 5.773438 15.960938 2.222657 11.925781 3.296876 193.40625 0 30.679688-24.957032 55.640625-55.640626 55.640625-314.625-1.472656-306.769531 3.367188-325.066406-4.425781-4.105468-1.746094-8.84375.164063-10.589844 4.265625-1.75 4.101562.160157 8.84375 4.261719 10.589844 8.90625 3.792968 18.363281 5.714844 28.113281 5.714844h303.28125c39.585938 0 71.785157-32.203126 71.785157-71.785157-1.332031-177.96875 3.164062-178.375-4.253907-198.898437-1.515624-4.191406-6.148437-6.363282-10.339843-4.84375zm0 0"/><path d="m49.023438 405.332031v-174.492187c0-30.679688 24.960937-55.640625 55.640624-55.640625h303.28125c14.109376 0 27.566407 5.289062 37.890626 14.890625 3.261718 3.035156 8.367187 2.851562 11.410156-.410156 3.035156-3.265626 2.851562-8.371094-.414063-11.410157-13.320312-12.390625-30.679687-19.214843-48.882812-19.214843h-303.285157c-39.582031 0-71.785156 32.203124-71.785156 71.785156v174.492187c0 16.746094 5.886719 33.042969 16.582032 45.894531 2.847656 3.421876 7.941406 3.894532 11.371093 1.039063 3.425781-2.851563 3.890625-7.941406 1.039063-11.367187-8.28125-9.957032-12.847656-22.589844-12.847656-35.566407zm0 0"/><path d="m200.148438 301.234375v-97.894531c0-19.847656-39.148438-19.855469-39.148438 0v30.140625h-15.492188v-30.140625c0-19.847656-39.148437-19.855469-39.148437 0v97.894531c0 19.960937 39.148437 19.984375 39.148437 0v-34.144531h15.492188v34.144531c0 19.957031 39.148438 19.984375 39.148438 0zm-62.210938-49.28125c-4.179688 0-7.566406 3.386719-7.566406 7.566406v40.714844c-2.292969 1.09375-6.585938 1.089844-8.875 0v-95.859375c2.28125-.9375 6.589844-.9375 8.875 0v36.675781c0 4.179688 3.386718 7.566407 7.566406 7.566407h30.632812c4.179688 0 7.566407-3.386719 7.566407-7.566407v-36.675781c2.285156-.9375 6.589843-.9375 8.875 0v95.859375c-2.292969 1.09375-6.582031 1.089844-8.875 0v-40.714844c0-4.179687-3.386719-7.566406-7.566407-7.566406zm0 0"/><path d="m280.957031 273.21875v-40.789062c0-14.160157-8.207031-22.960938-21.421875-22.960938-13.316406 0-21.265625 8.585938-21.265625 22.960938v40.789062c0 14.378906 7.949219 22.960938 21.265625 22.960938 13.214844 0 21.421875-8.796876 21.421875-22.960938zm-27.550781 0v-40.789062c0-7.824219 3.113281-7.824219 6.128906-7.824219 3.679688 0 6.285156.5625 6.285156 7.824219v40.789062c0 7.261719-2.605468 7.824219-6.285156 7.824219-3.011718 0-6.128906 0-6.128906-7.824219zm0 0"/><path d="m304.96875 273.21875v-40.789062c0-27.894532-16.558594-43.894532-45.433594-43.894532-28.773437 0-45.277344 16-45.277344 43.894532v40.789062c0 27.894531 16.503907 43.894531 45.277344 43.894531 28.875 0 45.433594-16 45.433594-43.894531zm-75.574219 0v-40.789062c0-19.351563 9.859375-28.757813 30.140625-28.757813 20.386719 0 30.296875 9.40625 30.296875 28.757813v40.789062c0 19.351562-9.910156 28.757812-30.296875 28.757812-20.28125 0-30.140625-9.40625-30.140625-28.757812zm0 0"/><path d="m377.929688 301.234375v-76.011719h13.675781c19.472656 0 20.019531-36.6875 0-36.6875h-66.496094c-20.015625 0-19.484375 36.6875 0 36.6875h13.671875v76.011719c0 19.957031 39.148438 19.984375 39.148438 0zm-15.136719-83.582031v82.582031c-2.292969 1.089844-6.582031 1.089844-8.875 0v-82.582031c0-4.179688-3.386719-7.566406-7.566407-7.566406h-20.316406c-.746094-1.675782-.800781-4.632813-.082031-6.414063h64.804687c.722657 1.777344.667969 4.734375-.078124 6.414063h-20.316407c-4.183593 0-7.570312 3.386718-7.570312 7.566406zm0 0"/><path d="m108.003906 445.617188c28.871094 0 45.433594-16 45.433594-43.894532v-39.867187c0-27.894531-16.5625-43.894531-45.433594-43.894531h-27.246094c-10.28125 0-18.035156 6.367187-18.035156 14.804687v98.046875c0 8.4375 7.753906 14.804688 18.035156 14.804688zm-30.144531-111.949219c.480469-.25 1.425781-.570313 2.898437-.570313h27.246094c20.386719 0 30.296875 9.40625 30.296875 28.757813v39.867187c0 19.351563-9.910156 28.757813-30.296875 28.757813h-27.246094c-1.472656 0-2.417968-.320313-2.898437-.570313zm0 0"/><path d="m94.304688 424.683594h13.695312c13.214844 0 21.421875-8.800782 21.421875-22.960938v-39.867187c0-14.164063-8.207031-22.960938-21.421875-22.960938h-13.695312c-4.179688 0-7.570313 3.386719-7.570313 7.570313v70.648437c0 4.179688 3.390625 7.570313 7.570313 7.570313zm7.566406-70.652344c7.550781.359375 12.414062-2.015625 12.414062 7.824219v39.867187c0 9.878906-4.96875 7.46875-12.414062 7.824219zm0 0"/><path d="m240.222656 354.03125c19.542969 0 19.925782-36.070312 0-36.070312h-54.796875c-10.449219 0-18.035156 6.289062-18.035156 14.957031v97.742187c0 8.664063 7.585937 14.953125 18.035156 14.953125h54.796875c19.921875 0 19.550782-36.066406 0-36.066406h-33.683594v-11.03125h15.519532c8.441406 0 14.804687-7.160156 14.804687-16.652344 0-9.664062-6.363281-16.957031-14.804687-16.957031h-15.519532v-10.875zm-41.25 26.011719h22.441406c.363282.894531.441407 2.285156.058594 3.335937h-22.5c-4.179687 0-7.570312 3.386719-7.570312 7.566406v26.167969c0 4.183594 3.390625 7.570313 7.570312 7.570313h40.382813c.664062 1.511718.730469 4.15625.078125 5.796875h-54.007813c-1.347656 0-2.359375-.292969-2.898437-.542969v-96.300781c2.308594-1.0625 2.492187-.257813 56.90625-.539063.652344 1.644532.585937 4.289063-.078125 5.796875h-40.382813c-4.179687 0-7.570312 3.390625-7.570312 7.570313v26.011718c0 4.179688 3.390625 7.566407 7.570312 7.566407zm0 0"/><path d="m297.480469 403.441406h22.472656c4.976563 0 8.617187-4.734375 7.300781-9.558594l-11.234375-41.25c-.898437-3.296874-3.890625-5.578124-7.304687-5.578124-3.410156 0-6.402344 2.285156-7.300782 5.578124l-11.238281 41.25c-1.308593 4.804688 2.3125 9.558594 7.304688 9.558594zm11.234375-20.023437 1.332031 4.886719h-2.664063zm0 0"/><path d="m294.625 435.570312 3.714844-13.660156h20.90625l3.742187 13.753906c1.78125 6.230469 7.4375 9.953126 15.128907 9.953126 12.84375 0 25.992187-9.214844 22.320312-21.332032l-28.800781-93.945312c-2.578125-8.203125-11.359375-13.300782-22.921875-13.300782-11.558594 0-20.339844 5.097657-22.9375 13.363282l-28.628906 93.894531c-5.945313 19.546875 31.980468 30.5 37.476562 11.273437zm5.613281-100.691406c.304688-.972656 3.398438-2.703125 8.476563-2.703125 5.082031 0 8.175781 1.730469 8.464844 2.652344l28.527343 93.050781c-1.605469 1.425782-5.523437 2.867188-8.453125 2.558594l-4.917968-18.082031c-.898438-3.292969-3.890626-5.582031-7.304688-5.582031h-32.476562c-3.414063 0-6.40625 2.289062-7.300782 5.582031l-4.917968 18.082031c-.226563.023438-.511719.039062-.863282.039062-3.09375 0-6.378906-1.519531-7.589844-2.601562zm0 0"/><path d="m386.753906 445.617188h48.640625c19.292969 0 19.359375-36.070313 0-36.070313h-27.527343v-76.78125c0-19.84375-39.148438-19.855469-39.148438 0v97.894531c0 8.664063 7.585938 14.957032 18.035156 14.957032zm-2.898437-111.816407c2.28125-.9375 6.601562-.9375 8.875 0v83.3125c0 4.183594 3.390625 7.570313 7.570312 7.570313h33.980469c.628906 1.644531.628906 4.148437 0 5.796875-47.441406-.277344-48.113281.519531-50.425781-.539063zm0 0"/></svg>