<svg id="Capa_1" enable-background="new 0 0 512 512" height="512" viewBox="0 0 512 512" width="512" xmlns="http://www.w3.org/2000/svg"><g><g><path d="m69.012 203.499h77.488c5.522 0 10-4.478 10-10s-4.478-10-10-10h-77.488c-5.522 0-10 4.478-10 10s4.477 10 10 10z"/><path d="m69.012 272.745h77.488c5.522 0 10-4.478 10-10s-4.478-10-10-10h-77.488c-5.522 0-10 4.478-10 10s4.477 10 10 10z"/><path d="m165.01 440.359c-2.097-5.029-8.012-7.498-13.06-5.409-5.033 2.083-7.487 8.033-5.4 13.06 2.09 5.035 8.011 7.491 13.05 5.41 5.03-2.077 7.502-8.035 5.41-13.061z"/><path d="m509.317 285.619-118.944-127.68 36.418-36.333c6.325-6.255 9.809-14.601 9.809-23.5 0-8.775-3.398-17.035-9.563-23.256-12.753-12.88-33.744-13.046-46.794-.367-.032.031-.063.062-.095.093l-49.931 49.811h-18.656v-38.403c0-5.522-4.478-10-10-10h-52.953v-8.169c0-5.522-4.478-10-10-10s-10 4.478-10 10v8.169h-36.531v-8.169c0-5.522-4.478-10-10-10s-10 4.478-10 10v8.169h-36.532v-8.169c0-5.522-4.478-10-10-10s-10 4.478-10 10v8.169h-36.533v-8.169c0-5.522-4.478-10-10-10s-10 4.478-10 10v8.169h-49.012c-5.522 0-10 4.478-10 10v358.2c0 5.522 4.478 10 10 10h102.072c5.522 0 10-4.478 10-10s-4.478-10-10-10h-92.072v-338.2h39.012v9.073c0 5.522 4.478 10 10 10s10-4.478 10-10v-9.073h36.532v9.073c0 5.522 4.478 10 10 10s10-4.478 10-10v-9.073h36.532v9.073c0 5.522 4.478 10 10 10s10-4.478 10-10v-9.073h36.531v9.073c0 5.522 4.478 10 10 10s10-4.478 10-10v-9.073h42.953v28.459c-17.962.73-35.116 8.315-47.852 20.98l-73.591 73.59c-4.447 4.447-3.621 12.064 1.64 15.469 8.286 5.359 17.574 8.824 27.279 10.221 3.235.466 6.516.702 9.823.702.016 0 .031-.001.046-.001l-11.479 11.452c-.833.832-1.494 1.8-1.983 2.845l-32.079 48.184c-2.891 4.342-4.071 9.299-3.639 14.105h-90.713c-5.522 0-10 4.478-10 10s4.478 10 10 10h112.623c4.328 0 8.693-1.443 12.257-3.865l48.759-33.131c.577-.378 1.134-.824 1.622-1.31l22.615-22.562 24.673 24.619v128.443h-91.508c-5.522 0-10 4.478-10 10s4.478 10 10 10h101.508c5.522 0 10-4.478 10-10v-118.922c12.642 10.499 28.404 16.222 45.048 16.222h39.897c8.297 0 16.342 3.441 22.021 9.387l76.19 80.967c6.06 6.441 17.282 2.003 17.282-6.853v-132.55c.001-2.529-.958-4.965-2.682-6.816zm-251.465-126.053c9.686-9.686 22.95-15.181 36.648-15.181h15.667l-62.305 62.155c-5.765 5.535-11.222 10.959-18.605 14.381-10.894 5.049-23.551 5.855-35.004 2.242zm136.366-70.776c5.217-5.026 13.55-4.973 18.61.136 2.432 2.454 3.771 5.714 3.771 9.18 0 3.516-1.375 6.811-3.902 9.311l-104.51 104.266-5.036-5.037c-4.716-4.716-10.667-8.18-17.094-9.957zm-211.567 232.793c-.856.582-1.654.515-2.396-.221-1.106-1.096-.545-1.939-.243-2.393l26.132-39.251 15.437 15.413zm54.568-39.112-18.553-18.553 19.054-19.012c1.799 6.511 5.363 12.455 10.131 17.222l4.879 4.869zm254.781 117.296-58.958-62.654c-9.485-9.932-22.802-15.628-36.536-15.628h-39.897c-13.509 0-26.212-5.249-35.767-14.779l-58.885-58.756c-8.501-6.375-6.602-20.508.003-27.216 7.421-7.222 19.79-7.207 27.048.053l47.842 47.842c3.849 3.847 10.292 3.848 14.143 0 3.905-3.905 3.905-10.237 0-14.143l-28.663-28.663 53.876-53.75 115.794 124.299z"/></g></g></svg>