<svg height="480pt" viewBox="-56 0 480 480" width="480pt" xmlns="http://www.w3.org/2000/svg"><path d="m24 448h8v8c0 13.601562 10.398438 24 24 24h288c13.601562 0 24-10.398438 24-24v-416c0-13.601562-10.398438-24-24-24h-24v16h24c4.800781 0 8 3.199219 8 8v416c0 4.800781-3.199219 8-8 8h-288c-4.800781 0-8-3.199219-8-8v-8h264c13.601562 0 24-10.398438 24-24v-355.199219l-68.800781-68.800781h-243.199219c-13.601562 0-24 10.398438-24 24v400c0 13.601562 10.398438 24 24 24zm248-420.800781 36.800781 36.800781h-28.800781c-4.800781 0-8-3.199219-8-8zm-256-3.199219c0-4.800781 3.199219-8 8-8h232v40c0 13.601562 10.398438 24 24 24h40v344c0 4.800781-3.199219 8-8 8h-288c-4.800781 0-8-3.199219-8-8zm0 0"/><path d="m168 256h64v16h-64zm0 0"/><path d="m40 256h104v16h-104zm0 0"/><path d="m168 296h64v16h-64zm0 0"/><path d="m168 336h64v16h-64zm0 0"/><path d="m40 296h104v16h-104zm0 0"/><path d="m40 336h104v16h-104zm0 0"/><path d="m40 376h104v16h-104zm0 0"/><path d="m168 376h64v16h-64zm0 0"/><path d="m256 256h40v16h-40zm0 0"/><path d="m256 296h40v16h-40zm0 0"/><path d="m256 336h40v16h-40zm0 0"/><path d="m256 376h40v16h-40zm0 0"/><path d="m129.601562 152h76l16-56h10.398438v-16h-20l-32-40h-24l-32 40h-20v16h9.601562zm64-16h-52l-11.203124-40h74.402343zm-29.601562-80h8l19.199219 24h-46.398438zm0 0"/><path d="m40 216h256v16h-256zm0 0"/><path d="m120 176h96v16h-96zm0 0"/></svg>