<svg id="Capa_1" enable-background="new 0 0 512 512" height="512" viewBox="0 0 512 512" width="512" xmlns="http://www.w3.org/2000/svg"><g><path d="m149.359 295.09v-154.28c0-7.989-6.5-14.489-14.489-14.489h-78.457c-7.989 0-14.489 6.5-14.489 14.489v154.28c0 7.989 6.5 14.489 14.489 14.489h78.456c7.99 0 14.49-6.5 14.49-14.489zm-14.989-.5h-77.457v-153.28h77.457z"/><path d="m78.04 277.191h37.228c4.139 0 7.494-3.355 7.494-7.494s-3.355-7.494-7.494-7.494h-37.228c-4.139 0-7.494 3.355-7.494 7.494s3.354 7.494 7.494 7.494z"/><path d="m78.04 246.889h37.228c4.139 0 7.494-3.355 7.494-7.494s-3.355-7.494-7.494-7.494h-37.228c-4.139 0-7.494 3.355-7.494 7.494s3.354 7.494 7.494 7.494z"/><path d="m78.04 222.17h37.228c4.139 0 7.494-3.355 7.494-7.494s-3.355-7.494-7.494-7.494h-37.228c-4.139 0-7.494 3.355-7.494 7.494-.001 4.139 3.354 7.494 7.494 7.494z"/><path d="m78.04 174.831h37.228c4.139 0 7.494-3.355 7.494-7.494s-3.355-7.494-7.494-7.494h-37.228c-4.139 0-7.494 3.355-7.494 7.494-.001 4.139 3.354 7.494 7.494 7.494z"/><path d="m467.743 288.22c-1.25-1.86-3.266-3.062-5.496-3.279-2.236-.219-4.439.577-6.024 2.159l-21.213 21.213c-2.926 2.927-2.926 7.672 0 10.599 2.927 2.926 7.672 2.926 10.599 0l14.327-14.328c4.664 9.472 7.097 19.928 7.097 30.697 0 18.587-7.239 36.064-20.383 49.207-13.143 13.144-30.619 20.383-49.207 20.383-10.767 0-21.224-2.434-30.696-7.097l56.658-56.656c2.927-2.927 2.927-7.672 0-10.599-2.927-2.925-7.672-2.926-10.599 0l-63.544 63.543c-1.584 1.585-2.376 3.794-2.16 6.024.217 2.23 1.419 4.246 3.279 5.496 13.898 9.342 30.172 14.279 47.062 14.279 22.591 0 43.831-8.798 59.806-24.772 15.974-15.975 24.772-37.215 24.772-59.806.002-16.892-4.936-33.166-14.278-47.063z"/><path d="m447.768 270.489c-.219-2.233-1.426-4.249-3.29-5.497-13.927-9.324-30.191-14.252-47.035-14.252-22.615 0-43.853 8.784-59.805 24.735 0 0-.001 0-.001.001-28.466 28.467-32.875 73.4-10.483 106.841 2.46 3.869 8.355 4.453 11.527 1.13l106.929-106.927c1.586-1.587 2.378-3.799 2.158-6.031zm-112.788 95.463c-12.931-26.346-7.953-58.666 13.257-79.878 13.121-13.12 30.597-20.345 49.207-20.345 10.737 0 21.184 2.43 30.67 7.087z"/><path d="m478.447 254.28c-10.836-10.837-23.323-19.036-36.657-24.614v-145.021c0-12.397-10.086-22.483-22.483-22.483h-396.824c-12.397 0-22.483 10.087-22.483 22.483v268.607c0 12.397 10.086 22.483 22.483 22.483h77.265c4.139 0 7.494-3.355 7.494-7.494s-3.355-7.494-7.494-7.494h-77.265c-4.133 0-7.494-3.362-7.494-7.494v-268.608c0-4.133 3.362-7.494 7.494-7.494h283.335v18.861c0 4.139 3.355 7.494 7.494 7.494s7.494-3.355 7.494-7.494v-18.861h98.501c4.133 0 7.494 3.362 7.494 7.494v139.937c-36.325-9.567-76.467-1.052-105.995 25.554v-118.151c0-4.139-3.355-7.494-7.494-7.494s-7.494 3.355-7.494 7.494v134.539c-20.621 27.442-27.296 62.104-20.025 94.223h-152.253c-4.139 0-7.494 3.355-7.494 7.494s3.355 7.494 7.494 7.494h156.736c5.56 14.796 14.281 28.664 26.166 40.548 21.636 21.638 50.403 33.554 81.003 33.554 30.599 0 59.367-11.916 81.002-33.553 21.637-21.635 33.553-50.403 33.553-81.002 0-30.6-11.916-59.367-33.553-81.002zm-10.599 151.406c-18.805 18.805-43.808 29.162-70.404 29.162s-51.599-10.357-70.404-29.163c-38.821-38.82-38.821-101.986-.001-140.807 19.414-19.413 44.906-29.116 70.407-29.116 25.493 0 50.996 9.708 70.402 29.115 0 .001 0 .001.001.001 18.805 18.805 29.162 43.808 29.162 70.404s-10.357 51.598-29.163 70.404z"/><path d="m213.275 225.615c3.71 0 7.42-1.412 10.245-4.236l67.907-67.907c5.649-5.65 5.649-14.842 0-20.492l-29.323-29.324c-2.737-2.736-6.376-4.244-10.246-4.244s-7.509 1.508-10.245 4.244l-67.908 67.907c-5.649 5.65-5.649 14.841 0 20.491l29.324 29.324c2.825 2.825 6.535 4.237 10.246 4.237zm38.583-111.006 28.617 28.617-67.2 67.2-28.618-28.617z"/><path d="m222.178 179.93c1.917 0 3.836-.732 5.3-2.195l20.601-20.601c2.926-2.927 2.926-7.672 0-10.599-2.927-2.926-7.672-2.926-10.599 0l-20.601 20.601c-2.926 2.927-2.926 7.672 0 10.599 1.463 1.463 3.382 2.195 5.299 2.195z"/></g></svg>