<svg id="Capa_1" enable-background="new 0 0 512 512" height="512" viewBox="0 0 512 512" width="512" xmlns="http://www.w3.org/2000/svg"><g><path d="m336.657 88.647h.879c4.143 0 7.5-3.358 7.5-7.5s-3.357-7.5-7.5-7.5h-.879c-4.143 0-7.5 3.358-7.5 7.5s3.358 7.5 7.5 7.5z"/><path d="m360.657 88.647h.879c4.143 0 7.5-3.358 7.5-7.5s-3.357-7.5-7.5-7.5h-.879c-4.143 0-7.5 3.358-7.5 7.5s3.358 7.5 7.5 7.5z"/><path d="m113.264 88.647h-.879c-4.143 0-7.5 3.358-7.5 7.5s3.357 7.5 7.5 7.5h.879c4.143 0 7.5-3.358 7.5-7.5s-3.358-7.5-7.5-7.5z"/><path d="m113.264 110.015h-.879c-4.143 0-7.5 3.358-7.5 7.5s3.357 7.5 7.5 7.5h.879c4.143 0 7.5-3.358 7.5-7.5s-3.358-7.5-7.5-7.5z"/><path d="m256.082 118.274c4.143 0 7.5-3.358 7.5-7.5v-43.5c0-4.142-3.357-7.5-7.5-7.5s-7.5 3.358-7.5 7.5v43.5c0 4.143 3.357 7.5 7.5 7.5z"/><path d="m232.776 88.274c4.143 0 7.5-3.358 7.5-7.5v-13.5c0-4.142-3.357-7.5-7.5-7.5s-7.5 3.358-7.5 7.5v13.5c0 4.143 3.358 7.5 7.5 7.5z"/><path d="m497.428 0h-40.855c-4.143 0-7.5 3.358-7.5 7.5v138.99h-16.515v-35.034c0-6.893-5.607-12.5-12.5-12.5h-11.743v-35.61c0-6.547-5.326-11.873-11.873-11.873h-103.013v-14.306c0-6.604-5.373-11.978-11.978-11.978h-112.348c-6.604 0-11.979 5.374-11.979 11.978v29.306h-68.23c-6.547 0-11.873 5.326-11.873 11.873v68.145h-14.093v-138.991c0-4.142-3.357-7.5-7.5-7.5h-40.856c-4.143 0-7.5 3.358-7.5 7.5v497c0 4.142 3.357 7.5 7.5 7.5h40.855c4.143 0 7.5-3.358 7.5-7.5v-23.853h386.145v23.853c0 4.142 3.357 7.5 7.5 7.5h40.855c4.143 0 7.5-3.358 7.5-7.5v-497c.001-4.142-3.357-7.5-7.499-7.5zm-434.5 413.763h386.145v11.175h-386.145zm117.172-108.763h26.725c6.341 0 11.5-5.159 11.5-11.5v-15h12.738v40.24h-35.638c-6.547 0-11.873 5.326-11.873 11.873v18.053c0 4.142 3.357 7.5 7.5 7.5s7.5-3.358 7.5-7.5v-14.926h80.021v13.879h-22.502c-6.547 0-11.873 5.326-11.873 11.873v16.181c0 6.547 5.326 11.874 11.873 11.874h22.502v11.215h-80.021v-16.095c0-4.142-3.357-7.5-7.5-7.5s-7.5 3.358-7.5 7.5v16.093h-24.707v-91.327c0-6.606-5.374-11.98-11.98-11.98h-16.27v-16.953h38.005v15c0 6.341 5.159 11.5 11.5 11.5zm3.5-15v-11.5h19.725v11.5zm238.052 108.762h-67.302v-32.538h67.303v32.538zm-36.691-47.538h-14.848v-31.681c0-4.142-3.357-7.5-7.5-7.5s-7.5 3.358-7.5 7.5v31.681h-3.264c-6.893 0-12.5 5.607-12.5 12.5v35.038h-45.776v-68.148c0-6.547-5.326-11.873-11.873-11.873h-3.044v-26.283h106.305zm-106.388 21.323h-19.375v-9.928h19.375zm-161.478-23.754c4.143 0 7.5-3.358 7.5-7.5v-30.84h19.25v88.31h-53.5v-88.31h19.25v30.84c0 4.142 3.357 7.5 7.5 7.5zm-54.167-161.123h386.145v25.709h-386.145zm330.386-121.198v32.483h-45.56c-6.893 0-12.5 5.607-12.5 12.5v35.034h-41.826v-80.017zm-221.19-26.284h106.305v106.302h-91.387v-68.145c0-6.547-5.326-11.873-11.873-11.873h-3.045zm-.082 80.09h-19.375v-9.928h19.375zm-80.021-38.806h80.021v13.878h-22.502c-6.547 0-11.873 5.327-11.873 11.874v16.181c0 6.547 5.326 11.873 11.873 11.873h22.502v11.211h-80.021zm267.312 80.018c4.143 0 7.5-3.358 7.5-7.5s-3.357-7.5-7.5-7.5h-9.078v-32.534h67.303v32.534h-24.224c-4.143 0-7.5 3.358-7.5 7.5s3.357 7.5 7.5 7.5h55.738v11.18h-386.144v-11.18zm-311.405 335.51h-25.856v-482h25.855v229.667c0 4.142 3.357 7.5 7.5 7.5s7.5-3.358 7.5-7.5v-16.287h386.145v170.383h-12.42v-35.039c0-6.893-5.607-12.5-12.5-12.5h-24.191v-61.789c0-6.604-5.374-11.978-11.979-11.978h-112.348c-6.604 0-11.978 5.374-11.978 11.978v29.305h-17.594v-42.74c0-6.893-5.607-12.5-12.5-12.5h-105.467c-6.893 0-12.5 5.607-12.5 12.5v19.453h-28.271c-6.605 0-11.979 5.374-11.979 11.98v91.33h-12.417v-120.096c0-4.142-3.357-7.5-7.5-7.5s-7.5 3.358-7.5 7.5zm15-31.353v-25.709h386.145v25.709zm427 31.353h-25.855v-482h25.855z"/><path d="m218.916 355.916h.879c4.143 0 7.5-3.358 7.5-7.5s-3.357-7.5-7.5-7.5h-.879c-4.143 0-7.5 3.358-7.5 7.5s3.357 7.5 7.5 7.5z"/><path d="m218.916 377.284h.879c4.143 0 7.5-3.358 7.5-7.5s-3.357-7.5-7.5-7.5h-.879c-4.143 0-7.5 3.358-7.5 7.5s3.357 7.5 7.5 7.5z"/><path d="m339.309 340.543c4.143 0 7.5-3.358 7.5-7.5v-13.5c0-4.142-3.357-7.5-7.5-7.5s-7.5 3.358-7.5 7.5v13.5c0 4.142 3.357 7.5 7.5 7.5z"/></g></svg>