<svg height="484pt" viewBox="0 0 484.19399 484" width="484pt" xmlns="http://www.w3.org/2000/svg"><path d="m443.003906 250.984375v-60.347656c.105469-3.042969-2.160156-5.652344-5.191406-5.972657l-42.558594-4.113281c-4.433594-18.296875-11.769531-35.765625-21.734375-51.742187l27.222657-32.835938c1.96875-2.371094 1.824218-5.847656-.335938-8.042968l-44.144531-44.71875c-2.1875-2.210938-5.699219-2.382813-8.09375-.398438l-32.878907 27.222656c-15.988281-9.925781-33.433593-17.292968-51.699218-21.824218l-4.113282-42.6875c-.296874-3.078126-2.882812-5.4257818-5.972656-5.4257818h-63.402344c-3.089843 0-5.675781 2.3476558-5.96875 5.4257818l-4.109374 42.683593c-18.300782 4.449219-35.773438 11.808594-51.746094 21.789063l-32.835938-27.191406c-2.382812-1.972657-5.878906-1.808594-8.070312.378906l-44.714844 44.71875c-2.191406 2.1875-2.355469 5.683594-.378906 8.070312l27.226562 32.878906c-9.929687 15.992188-17.292968 33.433594-21.828125 51.703126l-42.464843 4.113281c-3.03125.316406-5.304688 2.921875-5.20703175 5.96875v63.402343c-.09765625 3.046876 2.17578175 5.65625 5.21093775 5.972657l42.570312 4.113281c4.433594 18.296875 11.773438 35.765625 21.738282 51.738281l-27.21875 32.832031c-1.980469 2.382813-1.820313 5.878907.363281 8.070313l44.710937 44.71875c2.1875 2.1875 5.683594 2.351563 8.066406.378906l32.878907-27.226562c15.992187 9.925781 33.433593 17.289062 51.699219 21.824219l4.113281 42.445312c.320312 3.027344 2.925781 5.296875 5.972656 5.191406h62c25.335937 25.636719 59.941406 39.96875 95.984375 39.753906 75.175781 0 136.101562-60.898437 136.101562-135.898437 0-37.988281-15.191406-72.265625-41.191406-96.96875zm-251.449218 139.789063c-.261719-2.570313-2.171876-4.671876-4.707032-5.167969-19.847656-4.390625-38.734375-12.339844-55.75-23.460938-2.207031-1.410156-5.074218-1.226562-7.082031.453125l-32.019531 26.53125-36.992188-36.988281 26.515625-32.015625c1.691407-2.039062 1.839844-4.949219.371094-7.152344-11.210937-16.941406-19.167969-35.820312-23.46875-55.675781-.457031-2.519531-2.527344-4.4375-5.074219-4.699219l-41.34375-4.011718v-52.5l41.34375-4.007813c2.574219-.253906 4.675782-2.164063 5.179688-4.699219 4.394531-19.847656 12.34375-38.734375 23.464844-55.75 1.414062-2.207031 1.230468-5.070312-.445313-7.082031l-26.53125-32.019531 36.988281-36.996094 32.015625 26.519531c2.042969 1.6875 4.949219 1.839844 7.15625.371094 16.9375-11.210937 35.820313-19.171875 55.675781-23.46875 2.550782-.554687 4.449219-2.695313 4.699219-5.292969l4-41.5625h52.5l4.003907 41.5625c.25 2.597656 2.148437 4.734375 4.699218 5.289063 19.851563 4.414062 38.738282 12.378906 55.753906 23.519531 2.199219 1.417969 5.0625 1.25 7.078126-.421875l31.992187-26.492187 36.488281 36.941406-26.539062 32.050781c-1.6875 2.039063-1.839844 4.945313-.371094 7.152344 11.210938 16.941406 19.171875 35.824219 23.46875 55.679687.449219 2.515625 2.511719 4.433594 5.054688 4.699219l41.324218 4.011719v44.445312c-23.765625-18.496094-53.027344-28.519531-83.140625-28.476562-2.632812 0-5.128906.082031-7.726562.230468-5.367188-62.800781-58.839844-110.480468-121.84375-108.636718-63.003907 1.84375-113.597657 52.570312-115.28125 115.578125-1.683594 63.003906 46.128906 116.359375 108.941406 121.566406-.125 2.410156-.191406 4.601563-.191406 7.039063-.0625 30.644531 10.375 60.382812 29.578125 84.261718h-45.78125zm21.574218-61.917969c-56.5625-4.609375-99.65625-52.628907-98.144531-109.359375 1.507813-56.726563 47.097656-102.386719 103.824219-103.980469 56.726562-1.59375 104.808594 41.425781 109.507812 97.980469-59.546875 8.671875-106.714844 55.882812-115.1875 115.359375zm64.875 121.742187v-52.046875c.035156-.203125.058594-.402343.074219-.605469-.808594-8.179687 1.902344-16.320312 7.449219-22.382812 5.59375-6.085938 13.496094-9.527344 21.761718-9.464844h22.15625l3.085938 12.503906c-.003906.03125-.015625-.027343-.019531 0l-6.988281 44.332032c-.378907 1.984375.273437 4.023437 1.734374 5.417968l15.585938 14.988282c2.273438 2.183594 5.847656 2.234375 8.183594.117187l16.585937-15c1.539063-1.390625 2.25-3.476562 1.878907-5.519531l-8.042969-44.242188 3.109375-12.597656h22.167968c8.25-.058594 16.136719 3.382813 21.703126 9.472656 5.566406 6.085938 8.292968 14.25 7.496093 22.460938-.019531.199219.078125.316406.078125.519531v53.5c-42.128906 27.242188-96.457031 26.671875-138-1.453125zm65.5625-65.5h6.945313l6.578125 36.515625-9.960938 9.101563-9.300781-9.082032zm6.769532-12h-6.664063l-1.875-7h10.410156zm77.667968 70.085938v-44.34375c1.019532-11.542969-2.878906-22.984375-10.738281-31.503906-7.859375-8.523438-18.949219-13.328126-30.539063-13.238282h-79.4375c-11.59375-.09375-22.683593 4.714844-30.546874 13.234375-7.859376 8.519531-11.761719 19.960938-10.738282 31.507813v42.472656c-26.941406-23.488281-42.382812-57.496094-42.347656-93.238281 0-68.382813 55.828125-124.015625 124.386719-124.015625 68.558593 0 124.46875 55.632812 124.46875 124.015625-.078125 36.71875-16.367188 71.527343-44.507813 95.109375zm0 0"/><path d="m359.742188 251.097656h-27.851563c-14.34375.0625-25.925781 11.726563-25.886719 26.070313v33.792969c0 22.09375 17.90625 40 40 40 22.089844 0 40-17.90625 40-40v-33.792969c-.132812-14.417969-11.84375-26.042969-26.261718-26.070313zm14.261718 26.070313v3.429687c-7 2.136719-12.578125 1.933594-17.835937-.554687-7.476563-3.535157-12.519531-10.949219-15.355469-16.949219h18.929688c7.796874.019531 14.136718 6.28125 14.261718 14.074219zm-46-13.421875c1.222656 3.023437 2.660156 5.957031 4.300782 8.777344-3.625 4.195312-8.769532 6.777343-14.300782 7.171874v-2.53125c-.011718-6.195312 4.058594-11.660156 10-13.417968zm18 75.140625c-15.429687-.011719-27.949218-12.496094-28-27.925781v-19.265626c8.085938-.261718 15.765625-3.605468 21.460938-9.351562 3.226562 3.542969 7.097656 6.445312 11.402344 8.550781 4.464843 2.121094 9.351562 3.214844 14.292968 3.203125 2.976563-.015625 5.945313-.371094 8.84375-1.050781v17.914063c-.054687 15.429687-12.570312 27.914062-28 27.925781zm0 0"/></svg>